# Blender 4.5.3 LTS
# www.blender.org
mtllib wall-door-rotate.001.mtl
o wall-door-rotate.001
v 0.400000 -0.300000 -0.150000
v 0.500000 -0.300000 -0.150000
v 0.400000 -0.250000 -0.200000
v 0.500000 -0.250000 -0.200000
v 0.500000 -0.300000 0.000000
v 0.400000 -0.300000 0.000000
v 0.400000 0.300000 0.000000
v 0.400000 0.250000 -0.200000
v 0.400000 0.300000 -0.150000
v 0.500000 0.300000 0.000000
v 0.500000 0.300000 -0.150000
v 0.500000 0.250000 -0.200000
v 0.500000 -0.250000 -1.000000
v 0.500000 0.250000 -1.000000
v 0.500000 0.250000 -0.600000
v 0.400000 -0.250000 -0.900000
v 0.400000 0.250000 -0.900000
v 0.400000 0.250000 -0.600000
v 0.400000 0.050000 -0.900000
v 0.400000 0.150000 -0.900000
v 0.400000 0.150000 0.000000
v 0.400000 0.050000 0.000000
v 0.425000 0.025000 -0.100000
v 0.425000 0.025000 -0.200000
v 0.425000 0.175000 -0.100000
v 0.425000 0.175000 -0.200000
v 0.425000 0.025000 -0.700000
v 0.425000 0.025000 -0.800000
v 0.425000 0.175000 -0.700000
v 0.425000 0.175000 -0.800000
vn -0.7516 -0.6095 -0.2524
vn 0.2576 -0.8927 -0.3698
vn -0.6595 -0.5597 -0.5018
vn 0.1831 -0.9083 -0.3762
vn -0.5773 -0.5774 0.5773
vn 0.1096 -0.7028 0.7028
vn -0.5773 0.5774 0.5774
vn -0.8042 0.5491 -0.2275
vn -0.6579 0.4729 -0.5861
vn 0.1096 0.7029 0.7028
vn 0.2905 0.8840 -0.3662
vn 0.1831 0.9083 -0.3762
vn 1.0000 -0.0000 -0.0000
vn -1.0000 -0.0000 -0.0000
vn -0.0001 -0.0000 -1.0000
vn 0.0001 -0.0000 1.0000
vn -0.0000 -0.0000 1.0000
vn -0.0000 -1.0000 -0.0000
vn -0.0000 1.0000 -0.0000
vt 0.468750 0.225000
vt 0.468750 0.175000
vt 0.468750 0.025000
vt 0.218750 0.025000
vt 0.218750 0.175000
vt 0.218750 0.225000
vt 0.093750 0.225000
vt 0.093750 0.065000
vt 0.093750 0.145000
vt 0.093750 0.025000
vt 0.093750 0.055000
vt 0.093750 0.205000
vt 0.218750 0.065000
vt 0.218750 0.205000
vt 0.218750 0.145000
vt 0.218750 0.475000
vt 0.218750 0.275000
s 1
usemtl colormap.001
f 3/1/1 2/2/2 1/2/3
f 2/2/2 3/1/1 4/1/4
f 6/3/5 2/2/2 5/3/6
f 2/2/2 6/3/5 1/2/3
f 7/4/7 1/5/3 6/4/5
f 8/6/8 7/4/7 9/5/9
f 10/4/10 9/5/9 7/4/7
f 9/5/9 10/4/10 11/5/11
f 11/5/11 8/6/8 9/5/9
f 1/5/3 7/4/7 3/6/1
f 3/6/1 7/4/7 8/6/8
f 8/6/8 11/5/11 12/6/12
f 14/7/13 4/8/13 13/7/13
f 15/9/13 4/8/13 14/7/13
f 12/8/13 4/8/13 15/9/13
f 10/10/13 4/8/13 12/8/13
f 10/10/10 12/8/12 11/11/11
f 5/10/13 4/8/13 10/10/13
f 4/8/4 5/10/6 2/11/2
f 3/8/14 17/12/14 16/12/14
f 17/12/14 3/8/1 8/8/8
s 0
f 17/12/15 8/8/16 18/9/17
s 1
f 10/4/10 6/4/5 5/4/6
f 6/4/5 10/4/10 7/4/7
f 4/13/4 16/14/18 13/6/18
f 16/14/18 4/13/4 3/13/1
f 14/6/19 18/15/19 15/15/19
f 18/15/19 14/6/19 17/14/19
f 15/16/19 8/17/8 12/17/12
f 8/17/8 15/16/19 18/16/19
f 21/4/13 22/4/13 20/6/13
f 19/6/13 20/6/13 22/4/13
f 26/1/13 25/3/13 24/1/13
f 23/3/13 24/1/13 25/3/13
f 30/1/13 29/3/13 28/1/13
f 27/3/13 28/1/13 29/3/13
