# Blender 4.5.3 LTS
# www.blender.org
mtllib barrel_w2_p500.003@object.mtl
o barrel.001
v 0.350000 -0.014303 -0.130049
v 0.380000 -0.014303 -0.130049
v 0.350000 -0.014303 -0.150049
v 0.380000 -0.014303 -0.219108
v 0.350000 -0.014303 -0.219108
v 0.380000 0.000000 -0.225032
v 0.380000 0.014303 -0.130049
v 0.380000 0.014303 -0.219108
v 0.350000 0.014303 -0.130049
v 0.350000 0.014303 -0.150049
v 0.350000 0.014303 -0.219108
v -0.180000 -0.339453 -0.480059
v -0.180000 -0.140606 -0.678906
v -0.240000 -0.339453 -0.480059
v -0.240000 -0.140606 -0.678906
v 0.190000 -0.140606 -0.678906
v 0.190000 0.140606 -0.678906
v 0.130000 -0.140606 -0.678906
v 0.130000 0.140606 -0.678906
v 0.190000 0.140606 -0.000000
v 0.190000 -0.140606 -0.000000
v 0.130000 0.140606 -0.000000
v 0.130000 -0.140606 0.000000
v 0.130000 0.339453 -0.198847
v 0.130000 0.339453 -0.480059
v 0.190000 0.339453 -0.198847
v 0.190000 0.339453 -0.480059
v -0.240000 -0.339453 -0.198847
v -0.180000 -0.339453 -0.198847
v 0.130000 -0.339453 -0.198847
v 0.190000 -0.339453 -0.198847
v 0.130000 -0.339453 -0.480059
v 0.190000 -0.339453 -0.480059
v -0.180000 0.140606 -0.678906
v -0.240000 0.140606 -0.678906
v -0.180000 0.140606 -0.000000
v -0.180000 -0.140606 -0.000000
v -0.240000 0.140606 -0.000000
v -0.240000 -0.140606 -0.000000
v -0.180000 0.339453 -0.480059
v -0.240000 0.339453 -0.480059
v 0.350000 0.028605 -0.213184
v 0.350000 0.028605 -0.155973
v 0.350000 0.040454 -0.184578
v -0.180000 0.339453 -0.198847
v -0.240000 0.339453 -0.198847
v 0.350000 -0.040454 -0.184578
v 0.350000 -0.028605 -0.155973
v 0.350000 -0.028605 -0.213184
v 0.280000 0.000000 -0.225032
v 0.280000 0.028605 -0.213184
v 0.280000 0.028605 -0.155973
v 0.350000 0.009239 -0.147951
v 0.350000 0.000000 -0.144125
v 0.280000 0.000000 -0.144125
v 0.280000 -0.040454 -0.184578
v 0.280000 -0.028605 -0.213184
v 0.280000 -0.028605 -0.155973
v 0.280000 0.040454 -0.184578
v 0.130000 0.310000 -0.467859
v 0.130000 0.128406 -0.649453
v 0.130000 0.310000 -0.211047
v 0.130000 -0.128406 -0.649453
v 0.130000 -0.310000 -0.467859
v 0.130000 0.128406 -0.029453
v 0.130000 -0.128406 -0.029453
v 0.130000 -0.310000 -0.211047
v -0.240000 0.310000 -0.467859
v -0.240000 0.128406 -0.649453
v -0.240000 0.310000 -0.211047
v -0.240000 -0.128406 -0.649453
v -0.240000 -0.310000 -0.467859
v -0.240000 0.128406 -0.029453
v -0.240000 -0.128406 -0.029453
v -0.240000 -0.310000 -0.211047
v 0.190000 0.310000 -0.211047
v 0.190000 0.128406 -0.029453
v 0.190000 0.310000 -0.467859
v 0.190000 -0.128406 -0.029453
v 0.190000 -0.310000 -0.211047
v 0.190000 0.128406 -0.649453
v 0.190000 -0.128406 -0.649453
v 0.190000 -0.310000 -0.467859
v -0.180000 0.310000 -0.211047
v -0.180000 0.128406 -0.029453
v -0.180000 0.310000 -0.467859
v -0.180000 -0.128406 -0.029453
v -0.180000 -0.310000 -0.211047
v -0.180000 0.128406 -0.649453
v -0.180000 -0.128406 -0.649453
v -0.180000 -0.310000 -0.467859
v 0.320000 -0.128406 -0.029453
v 0.320000 -0.310000 -0.211047
v 0.300000 -0.128406 -0.029453
v -0.380000 0.264804 -0.229768
v -0.350000 0.264804 -0.229768
v -0.380000 0.264804 -0.449139
v -0.350000 0.264804 -0.449139
v -0.350000 -0.109686 -0.074649
v -0.380000 -0.109686 -0.074649
v -0.350000 -0.264804 -0.229768
v -0.380000 -0.264804 -0.229768
v 0.330000 -0.128406 -0.649453
v 0.330000 0.128406 -0.649453
v 0.310000 -0.128406 -0.649453
v 0.350000 -0.276236 -0.225032
v 0.350000 -0.310000 -0.211047
v 0.320000 -0.276236 -0.225032
v 0.320000 -0.114421 -0.063217
v 0.290000 0.128406 -0.029453
v 0.290000 0.310000 -0.211047
v 0.330000 0.310000 -0.211047
v 0.330000 0.310000 -0.467859
v -0.350000 0.109686 -0.074649
v -0.380000 0.109686 -0.074649
v -0.350000 0.109686 -0.604257
v -0.350000 -0.109686 -0.604257
v -0.380000 0.109686 -0.604257
v -0.380000 -0.109686 -0.604257
v 0.310000 -0.310000 -0.467859
v 0.310000 -0.276236 -0.453874
v 0.310000 -0.114421 -0.615689
v -0.350000 -0.264804 -0.449139
v -0.380000 -0.264804 -0.449139
v 0.300000 -0.114421 -0.063217
v 0.290000 0.114421 -0.063217
v 0.300000 0.128406 -0.029453
v 0.300000 0.114421 -0.063217
v 0.290000 0.276236 -0.225032
v 0.350000 0.310000 -0.467859
v 0.350000 0.128406 -0.649453
v 0.350000 -0.310000 -0.467859
v 0.330000 0.114421 -0.615689
v 0.330000 -0.114421 -0.615689
v 0.280000 0.114421 -0.615689
v 0.280000 -0.114421 -0.615689
v 0.350000 0.114421 -0.615689
v 0.350000 0.276236 -0.453874
v 0.350000 -0.276236 -0.453874
v 0.280000 -0.276236 -0.453874
v 0.280000 -0.276236 -0.225032
v 0.280000 -0.114421 -0.063217
v 0.280000 0.114421 -0.063217
v 0.280000 0.000000 -0.063217
v 0.330000 0.276236 -0.453874
v 0.280000 0.276236 -0.453874
v 0.280000 0.276236 -0.225032
v 0.330000 0.276236 -0.225032
v -0.380000 0.310000 -0.211047
v -0.380000 0.310000 -0.467859
v -0.380000 -0.310000 -0.467859
v -0.380000 -0.128406 -0.649453
v -0.380000 -0.310000 -0.211047
v -0.380000 -0.128406 -0.029453
v -0.380000 0.128406 -0.649453
v -0.380000 0.128406 -0.029453
vn 0.5773 -0.5773 0.5774
vn -0.0000 -0.8315 0.5556
vn 0.6009 -0.6646 -0.4441
vn 0.2092 -0.5990 -0.7729
vn 0.8120 -0.0632 -0.5803
vn 0.5773 0.5774 0.5773
vn 0.6009 0.6646 -0.4441
vn 0.6258 0.0494 -0.7785
vn -0.6594 -0.0430 -0.7505
vn -0.4883 0.3340 -0.8062
vn -0.6258 0.0494 0.7785
vn 0.6594 -0.0430 0.7505
vn 0.4883 0.3340 0.8062
vn -0.4107 -0.3489 0.8424
vn -0.6143 0.7881 0.0398
vn 0.6594 0.7505 -0.0446
vn 0.4562 0.8221 -0.3405
vn -0.6215 -0.7833 -0.0115
vn 0.4107 -0.8424 0.3489
vn -0.6600 -0.7512 -0.0122
vn 0.6600 -0.5364 0.5260
vn 0.6600 -0.0074 0.7512
vn -0.4562 -0.3405 0.8221
vn -0.3598 0.8620 -0.3571
vn 0.6594 0.5611 -0.5003
vn 0.6190 0.5499 0.5608
vn 0.7142 -0.6221 -0.3208
vn 0.6601 -0.6966 0.2812
vn 0.6574 -0.6572 -0.3686
vn -0.5773 0.5773 0.5774
vn -0.5774 -0.5774 0.5774
vn 0.8985 0.0567 -0.4353
vn 0.2091 0.5990 -0.7729
vn 0.6601 0.2812 -0.6966
vn 0.8930 0.2787 0.3534
vn -0.0000 0.8315 0.5556
vn 0.4144 0.6435 0.6435
vn -0.7071 0.2706 0.6533
vn 0.8964 -0.0552 0.4398
vn -0.9009 -0.0000 0.4341
vn 0.8943 -0.3163 0.3163
vn 0.9006 -0.2634 -0.3458
vn 0.8901 0.4558 -0.0000
vn 0.6574 0.6572 -0.3686
vn 0.8241 0.4953 -0.2747
vn -0.8042 0.2275 -0.5491
vn -0.8042 0.5491 -0.2275
vn -0.8042 0.5491 0.2275
vn -0.6691 0.7372 0.0940
vn -0.8042 -0.2275 -0.5491
vn -0.8042 -0.5491 -0.2275
vn -0.8042 -0.2275 0.5491
vn -0.8042 0.2275 0.5491
vn -0.8111 -0.5403 0.2238
vn -0.8042 -0.5491 0.2275
vn -0.6600 -0.7512 -0.0074
vn -0.6594 0.7505 0.0430
vn 0.8042 0.5491 0.2275
vn 0.8042 0.2274 0.5491
vn 0.8042 -0.2275 0.5491
vn 0.8042 -0.5491 0.2274
vn 0.8042 0.2275 -0.5491
vn 0.8042 0.5491 -0.2275
vn 0.8042 -0.2275 -0.5491
vn 0.8042 -0.5491 -0.2275
vn 0.8079 -0.2255 -0.5445
vn 0.8111 -0.5403 -0.2238
vn 0.8042 0.2275 0.5491
vn 0.8042 -0.5491 0.2275
vn 0.6594 -0.0430 -0.7505
vn 0.2554 -0.1670 0.9523
vn 0.2554 -0.7914 0.5553
vn 0.5594 0.1617 0.8129
vn -0.6303 -0.7173 -0.2971
vn 0.2554 -0.5553 -0.7915
vn 0.2554 0.1670 -0.9523
vn 0.5594 -0.6892 -0.4605
vn 0.3742 0.9251 0.0649
vn 0.2554 0.7914 0.5554
vn 0.2554 0.5553 0.7914
vn -0.6303 -0.2971 -0.7173
vn -0.6303 0.2971 0.7173
vn 0.7474 0.6516 -0.1296
vn 0.3742 -0.0649 0.9251
vn -0.6303 0.7173 0.2971
vn 0.6009 0.7840 -0.1559
vn 0.3742 0.7000 -0.6082
vn 0.2554 0.9523 -0.1670
vn 0.5594 -0.1617 -0.8129
vn 0.2554 -0.7914 -0.5554
vn -0.0000 1.0000 -0.0000
vn 0.6303 0.7173 0.2971
vn 0.6303 0.7173 -0.2971
vn 0.6008 0.6646 -0.4441
vn 0.5594 -0.4605 -0.6892
vn 0.6303 0.2971 -0.7173
vn 0.6009 -0.4441 0.6646
vn 0.6009 -0.7840 0.1560
vn 0.5594 -0.4604 0.6892
vn 0.6009 0.6646 0.4441
vn 0.5595 0.6892 0.4605
vn 0.6009 0.4441 -0.6646
vn 0.3742 -0.6082 0.7000
vn 0.3742 -0.7000 0.6082
vn 0.6303 -0.7173 0.2971
vn 0.6009 -0.1560 0.7840
vn 0.5594 0.8129 0.1617
vn 0.3742 -0.9251 0.0649
vn 0.6303 -0.2971 -0.7173
vn 0.6303 -0.7173 -0.2971
vn 0.6009 -0.6646 0.4441
vn 0.5595 0.4605 0.6892
vn 0.6303 0.2971 0.7173
vn -0.6303 0.7173 -0.2971
vn -0.6303 0.2971 -0.7173
vn -0.6303 -0.7173 0.2971
vn -0.6302 -0.2971 0.7173
vn -0.6303 -0.2971 0.7173
vn 0.8182 -0.5561 0.1457
vn 1.0000 -0.0000 -0.0000
vn 0.6303 -0.2971 0.7173
vn 0.3742 0.0649 -0.9251
vn -0.0000 -0.0000 -0.0000
vt 0.843750 0.063311
vt 0.843750 0.069203
vt 0.843750 0.089547
vt 0.843750 0.091293
vt 0.843750 0.225000
vt 0.843750 0.025000
vt 0.843750 0.166421
vt 0.843750 0.083579
vt 0.843750 0.087802
vt 0.843750 0.070948
vt 0.843750 0.079375
vt 0.843750 0.068585
vt 0.843750 0.067458
vt 0.843750 0.216323
vt 0.843750 0.162827
vt 0.843750 0.087173
vt 0.843750 0.033677
vt 0.218750 0.283677
vt 0.218750 0.337173
vt 0.218750 0.407312
vt 0.218750 0.342688
vt 0.218750 0.466323
vt 0.218750 0.341293
vt 0.218750 0.296991
vt 0.218750 0.453009
vt 0.218750 0.408707
vt 0.218750 0.456377
vt 0.218750 0.293623
vt 0.218750 0.412827
vt 0.343750 0.296991
vt 0.343750 0.407312
vt 0.343750 0.342688
vt 0.343750 0.453009
vt 0.343750 0.329375
vt 0.343750 0.293623
vt 0.343750 0.317458
vt 0.343750 0.320948
vt 0.343750 0.337802
vt 0.343750 0.456377
vt 0.343750 0.341293
vt 0.343750 0.408707
s 1
usemtl colormap.012
f 2/1/1 3/2/2 4/3/3
f 4/3/3 3/2/2 5/3/4
f 6/4/5 2/1/1 4/3/3
f 2/1/1 6/4/5 7/1/6
f 7/1/6 6/4/5 8/3/7
f 17/5/8 18/5/9 19/5/10
f 22/6/11 21/6/12 20/6/13
f 21/6/12 22/6/11 23/6/14
f 25/7/15 26/8/16 27/7/17
f 14/7/18 29/8/19 28/8/20
f 23/6/14 31/8/21 21/6/12
f 34/5/8 15/5/9 35/5/10
f 38/6/11 37/6/22 36/6/13
f 37/6/22 38/6/11 39/6/23
f 34/5/8 41/7/24 40/7/25
f 41/7/24 34/5/8 35/5/10
f 25/7/15 17/5/8 19/5/10
f 28/8/20 37/6/22 39/6/23
f 37/6/22 28/8/20 29/8/19
f 45/8/26 38/6/11 36/6/13
f 49/9/27 48/10/28 47/11/29
f 48/10/28 5/3/4 3/2/2
f 26/8/16 22/6/11 20/6/13
f 2/1/1 9/1/30 1/1/31
f 8/3/7 50/4/32 11/3/33
f 11/3/33 50/4/32 42/9/34
f 52/10/35 10/2/36 43/10/37
f 10/2/36 52/10/35 53/12/38
f 55/13/39 3/2/2 54/13/40
f 3/2/2 55/13/39 48/10/28
f 48/10/28 55/13/39 58/10/41
f 57/9/42 5/3/4 49/9/27
f 50/4/32 5/3/4 57/9/42
f 5/3/4 6/4/5 4/3/3
f 42/9/34 59/11/43 44/11/44
f 59/11/43 42/9/34 51/9/45
f 3/2/2 9/1/30 54/13/40
f 19/5/10 61/14/46 60/15/47
f 62/16/48 24/8/49 60/15/47
f 19/5/10 63/14/50 61/14/46
f 18/5/9 64/15/51 63/14/50
f 62/16/48 22/6/11 24/8/49
f 66/17/52 22/6/11 65/17/53
f 30/8/54 67/16/55 32/7/56
f 41/7/24 68/15/47 46/8/57
f 70/16/48 46/8/57 68/15/47
f 15/5/9 71/14/50 35/5/10
f 15/5/9 72/15/51 71/14/50
f 14/7/18 72/15/51 15/5/9
f 73/17/53 38/6/11 70/16/48
f 74/17/52 39/6/23 38/6/11
f 75/16/55 39/6/23 74/17/52
f 20/6/13 76/16/58 26/8/16
f 20/6/13 77/17/59 76/16/58
f 20/6/13 79/17/60 77/17/59
f 21/6/12 80/16/61 79/17/60
f 81/14/62 17/5/8 78/15/63
f 82/14/64 17/5/8 81/14/62
f 80/16/61 31/8/21 83/15/65
f 83/15/65 16/5/66 82/14/64
f 33/7/67 83/15/65 31/8/21
f 83/15/65 33/7/67 16/5/66
f 36/6/13 84/16/58 45/8/26
f 36/6/13 87/17/60 85/17/68
f 37/6/22 87/17/60 36/6/13
f 37/6/22 88/16/69 87/17/60
f 90/14/64 13/5/70 34/5/8
f 12/7/67 91/15/65 29/8/19
f 91/15/65 12/7/67 13/5/70
f 94/18/71 93/19/72 92/18/73
f 80/19/61 94/18/71 79/18/60
f 97/20/55 96/21/74 95/21/51
f 105/22/75 104/22/76 103/22/77
f 81/22/62 105/22/75 82/22/64
f 108/23/78 92/18/73 93/19/72
f 111/19/79 77/18/59 110/18/80
f 115/24/50 96/21/74 114/24/81
f 96/21/74 115/24/50 95/21/51
f 114/24/81 100/24/46 115/24/50
f 117/25/82 118/25/52 119/25/53
f 121/26/83 105/22/75 122/27/84
f 102/21/47 123/20/85 124/20/48
f 117/25/82 124/20/48 123/20/85
f 94/18/71 109/28/86 125/28/87
f 79/18/60 110/18/80 77/18/59
f 113/29/88 131/22/89 104/22/76
f 83/29/65 105/22/75 120/29/90
s 0
f 140/26/91 139/26/91 121/26/91
s 1
f 108/23/78 140/26/92 141/23/93
f 120/29/90 139/26/94 132/29/95
f 139/26/94 120/29/90 121/26/83
f 125/28/87 141/23/93 142/28/96
f 134/27/97 105/22/75 103/22/77
f 137/27/98 104/22/76 131/22/89
f 139/26/94 107/19/99 132/29/95
f 107/19/99 139/26/94 106/23/100
f 125/28/87 127/18/101 94/18/71
f 127/18/101 125/28/87 128/28/102
f 137/27/98 145/26/103 133/27/104
f 133/27/104 145/26/103 146/26/105
f 113/29/88 138/26/106 130/29/107
f 138/26/106 113/29/88 145/26/103
f 104/22/76 134/27/97 103/22/77
f 134/27/97 104/22/76 133/27/104
f 129/23/108 143/28/109 147/23/110
f 113/29/88 148/23/111 145/26/103
f 148/23/111 113/29/88 112/19/112
f 140/26/92 122/27/84 136/27/113
f 70/19/48 150/29/114 149/19/85
f 62/19/48 86/29/63 84/19/58
f 62/19/48 85/18/68 65/18/53
f 85/18/68 62/19/48 84/19/58
f 151/29/74 71/22/50 72/29/51
f 71/22/50 151/29/74 152/22/81
f 152/22/81 69/22/46 71/22/50
f 69/22/46 152/22/81 155/22/115
f 87/18/60 67/19/55 66/18/52
f 67/19/55 87/18/60 88/19/69
f 67/19/55 91/29/65 64/29/51
f 86/29/63 61/22/46 89/22/62
f 149/19/85 73/18/53 70/19/48
f 151/29/74 75/19/55 153/19/116
f 75/19/55 151/29/74 72/29/51
f 155/22/115 68/29/47 69/22/46
f 68/29/47 155/22/115 150/29/114
f 155/22/115 118/25/52 97/20/55
f 152/22/81 119/25/53 155/22/115
f 155/22/115 97/20/55 150/29/114
f 152/22/81 124/20/48 119/25/53
f 150/29/114 97/20/55 149/19/85
f 124/20/48 151/29/74 102/21/47
f 153/19/116 102/21/47 151/29/74
f 102/21/47 153/19/116 154/18/117
f 102/21/47 154/18/117 100/24/46
f 95/21/51 156/18/82 149/19/85
f 99/30/115 123/31/85 101/32/114
f 117/33/82 114/30/81 116/33/118
f 116/33/118 114/30/81 96/32/74
f 56/34/119 144/35/120 142/35/96
f 144/35/120 55/36/39 52/37/35
f 57/38/42 135/39/121 50/40/32
f 50/40/32 135/39/121 51/38/45
f 143/35/109 59/34/43 135/39/121
f 143/35/109 135/39/121 146/41/105
f 143/35/109 146/41/105 147/40/110
f 3/2/2 2/1/1 1/1/31
f 7/1/6 10/2/36 9/1/30
f 10/2/36 7/1/6 8/3/7
f 10/2/36 8/3/7 11/3/33
f 14/7/18 13/5/70 12/7/67
f 13/5/70 14/7/18 15/5/9
f 18/5/9 17/5/8 16/5/66
f 26/8/16 25/7/15 24/8/49
f 29/8/19 14/7/18 12/7/67
f 32/7/56 31/8/21 30/8/54
f 31/8/21 32/7/56 33/7/67
f 31/8/21 23/6/14 30/8/54
f 32/7/56 16/5/66 33/7/67
f 16/5/66 32/7/56 18/5/9
f 15/5/9 34/5/8 13/5/70
f 17/5/8 25/7/15 27/7/17
f 42/9/34 10/2/36 11/3/33
f 10/2/36 42/9/34 43/10/37
f 43/10/37 42/9/34 44/11/44
f 38/6/11 45/8/26 46/8/57
f 48/10/28 49/9/27 5/3/4
f 22/6/11 26/8/16 24/8/49
f 40/7/25 46/8/57 45/8/26
f 46/8/57 40/7/25 41/7/24
f 9/1/30 2/1/1 7/1/6
f 50/4/32 8/3/7 6/4/5
f 42/9/34 50/4/32 51/9/45
f 53/12/38 52/10/35 54/13/40
f 54/13/40 52/10/35 55/13/39
f 57/9/42 47/11/29 56/11/119
f 47/11/29 57/9/42 49/9/27
f 56/11/119 48/10/28 58/10/41
f 48/10/28 56/11/119 47/11/29
f 44/11/44 52/10/35 43/10/37
f 52/10/35 44/11/44 59/11/43
f 6/4/5 5/3/4 50/4/32
f 9/1/30 3/2/2 1/1/31
f 54/13/40 9/1/30 53/12/38
f 53/12/38 9/1/30 10/2/36
f 19/5/10 60/15/47 25/7/15
f 25/7/15 60/15/47 24/8/49
f 18/5/9 63/14/50 19/5/10
f 32/7/56 64/15/51 18/5/9
f 65/17/53 22/6/11 62/16/48
f 66/17/52 23/6/14 22/6/11
f 64/15/51 32/7/56 67/16/55
f 67/16/55 23/6/14 66/17/52
f 67/16/55 30/8/54 23/6/14
f 35/5/10 68/15/47 41/7/24
f 35/5/10 69/14/46 68/15/47
f 35/5/10 71/14/50 69/14/46
f 70/16/48 38/6/11 46/8/57
f 74/17/52 38/6/11 73/17/53
f 72/15/51 14/7/18 75/16/55
f 28/8/20 75/16/55 14/7/18
f 75/16/55 28/8/20 39/6/23
f 26/8/16 76/16/58 27/7/17
f 78/15/63 27/7/17 76/16/58
f 21/6/12 79/17/60 20/6/13
f 31/8/21 80/16/61 21/6/12
f 78/15/63 17/5/8 27/7/17
f 82/14/64 16/5/66 17/5/8
f 45/8/26 84/16/58 40/7/25
f 36/6/13 85/17/68 84/16/58
f 86/15/63 40/7/25 84/16/58
f 29/8/19 88/16/69 37/6/22
f 86/15/63 34/5/8 40/7/25
f 89/14/62 34/5/8 86/15/63
f 90/14/64 34/5/8 89/14/62
f 88/16/69 29/8/19 91/15/65
f 91/15/65 13/5/70 90/14/64
f 93/19/72 94/18/71 80/19/61
f 96/21/74 97/20/55 98/20/116
f 101/21/114 100/24/46 99/24/115
f 100/24/46 101/21/114 102/21/47
f 104/22/76 105/22/75 81/22/62
f 108/23/78 107/19/99 106/23/100
f 107/19/99 108/23/78 93/19/72
f 92/18/73 108/23/78 109/28/86
f 77/18/59 111/19/79 76/19/58
f 111/19/79 78/29/63 76/19/58
f 78/29/63 111/19/79 112/19/112
f 78/29/63 112/19/112 113/29/88
f 100/24/46 114/24/81 99/24/115
f 118/25/52 117/25/82 116/25/118
f 105/22/75 121/26/83 120/29/90
f 123/20/85 102/21/47 101/21/114
f 97/20/55 116/25/118 98/20/116
f 116/25/118 97/20/55 118/25/52
f 124/20/48 117/25/82 119/25/53
f 109/28/86 94/18/71 92/18/73
f 127/18/101 126/28/122 110/18/80
f 126/28/122 127/18/101 128/28/102
f 110/18/80 94/18/71 127/18/101
f 94/18/71 110/18/80 79/18/60
f 129/23/108 110/18/80 126/28/122
f 110/18/80 129/23/108 111/19/79
f 131/22/89 113/29/88 130/29/107
f 113/29/88 104/22/76 78/29/63
f 78/29/63 104/22/76 81/22/62
f 83/29/65 93/19/72 80/19/61
f 93/19/72 83/29/65 107/19/99
f 107/19/99 83/29/65 120/29/90
f 132/29/95 107/19/99 120/29/90
f 105/22/75 83/29/65 82/22/64
f 135/27/121 134/27/97 133/27/104
f 134/27/97 135/27/121 122/27/84
f 122/27/84 135/27/121 136/27/113
f 131/22/89 138/26/106 137/27/98
f 138/26/106 131/22/89 130/29/107
f 139/26/94 108/23/78 106/23/100
f 140/26/92 108/23/78 139/26/94
f 108/23/78 125/28/87 109/28/86
f 125/28/87 108/23/78 141/23/93
f 105/22/75 134/27/97 122/27/84
f 104/22/76 137/27/98 133/27/104
f 142/28/96 128/28/102 125/28/87
f 128/28/102 142/28/96 126/28/122
f 126/28/122 142/28/96 143/28/109
s 0
f 143/28/123 142/28/123 144/28/123
s 1
f 145/26/103 137/27/98 138/26/106
f 133/27/104 146/26/105 135/27/121
f 146/26/105 129/23/108 147/23/110
f 129/23/108 146/26/105 148/23/111
f 148/23/111 146/26/105 145/26/103
f 111/19/79 148/23/111 112/19/112
f 148/23/111 111/19/79 129/23/108
f 143/28/109 129/23/108 126/28/122
f 122/27/84 140/26/92 121/26/83
f 91/29/65 63/22/50 64/29/51
f 63/22/50 91/29/65 90/22/64
f 150/29/114 70/19/48 68/29/47
f 86/29/63 62/19/48 60/29/47
f 85/18/68 66/18/52 65/18/53
f 66/18/52 85/18/68 87/18/60
f 74/18/52 153/19/116 75/19/55
f 153/19/116 74/18/52 154/18/117
f 90/22/64 61/22/46 63/22/50
f 61/22/46 90/22/64 89/22/62
f 156/18/82 74/18/52 73/18/53
f 74/18/52 156/18/82 154/18/117
f 91/29/65 67/19/55 88/19/69
f 61/22/46 86/29/63 60/29/47
f 73/18/53 149/19/85 156/18/82
f 155/22/115 119/25/53 118/25/52
f 151/29/74 124/20/48 152/22/81
f 95/21/51 149/19/85 97/20/55
f 100/24/46 154/18/117 156/18/82
f 115/24/50 156/18/82 95/21/51
f 100/24/46 156/18/82 115/24/50
f 123/31/85 99/30/115 117/33/82
f 117/33/82 99/30/115 114/30/81
f 116/33/118 96/32/74 98/31/116
f 136/39/113 141/40/93 140/41/92
f 141/40/93 136/39/113 142/35/96
f 142/35/96 136/39/113 135/39/121
f 142/35/96 135/39/121 56/34/119
f 56/34/119 135/39/121 57/38/42
f 144/35/120 56/34/119 58/37/41
f 144/35/120 58/37/41 55/36/39
f 144/35/120 52/37/35 143/35/109
f 51/38/45 135/39/121 59/34/43
f 143/35/109 52/37/35 59/34/43
