# Blender 4.5.3 LTS
# www.blender.org
mtllib road-bend.mtl
o road-bend.001
v -0.420665 0.439124 -0.020000
v -0.420665 0.439124 -0.010000
v -0.413397 0.450000 -0.020000
v -0.413397 0.450000 -0.010000
v -0.429289 0.429289 -0.020000
v -0.429289 0.429289 -0.010000
v -0.439124 0.420665 -0.010000
v -0.439124 0.420665 -0.020000
v -0.461732 0.407612 -0.010000
v -0.450000 0.413397 -0.010000
v -0.461732 0.407612 -0.020000
v -0.450000 0.413397 -0.020000
v -0.474118 0.403407 -0.010000
v -0.474118 0.403407 -0.020000
v -0.500000 0.400000 -0.010000
v -0.486947 0.400856 -0.010000
v -0.500000 0.400000 -0.020000
v -0.486947 0.400856 -0.020000
v -0.382526 -0.392300 -0.010000
v -0.382526 -0.392300 -0.020000
v -0.267063 -0.369333 -0.010000
v -0.267063 -0.369333 -0.020000
v -0.155585 -0.331492 -0.010000
v -0.155585 -0.331492 -0.020000
v 0.279423 0.050000 -0.010000
v 0.279423 0.050000 -0.020000
v 0.331492 0.155585 -0.010000
v 0.331492 0.155585 -0.020000
v 0.500000 0.500000 0.000000
v 0.491445 0.369474 0.000000
v -0.500000 0.500000 0.000000
v 0.465926 0.241181 0.000000
v 0.423880 0.117317 0.000000
v 0.366025 -0.000000 -0.000000
v 0.293353 -0.108761 -0.000000
v 0.207107 -0.207107 -0.000000
v 0.108761 -0.293353 -0.000000
v 0.000000 -0.366025 -0.000000
v -0.117317 -0.423880 -0.000000
v -0.241181 -0.465926 -0.000000
v -0.369474 -0.491445 -0.000000
v -0.500000 -0.500000 0.000000
v -0.050000 -0.279423 -0.010000
v -0.050000 -0.279423 -0.020000
v 0.047885 -0.214018 -0.010000
v 0.047885 -0.214018 -0.020000
v -0.500000 -0.400000 -0.010000
v -0.500000 -0.400000 -0.020000
v 0.136396 -0.136396 -0.010000
v 0.136396 -0.136396 -0.020000
v 0.214018 -0.047885 -0.010000
v 0.214018 -0.047885 -0.020000
v 0.369333 0.267063 -0.010000
v 0.369333 0.267063 -0.020000
v 0.392300 0.382526 -0.010000
v 0.392300 0.382526 -0.020000
v 0.400000 0.500000 -0.010000
v 0.400000 0.500000 -0.020000
v -0.400000 0.500000 -0.020000
v -0.500000 0.500000 -0.020000
v -0.400856 0.486947 -0.020000
v -0.403407 0.474118 -0.020000
v -0.407612 0.461732 -0.020000
v -0.403407 0.474118 -0.010000
v -0.400856 0.486947 -0.010000
v -0.407612 0.461732 -0.010000
v -0.400000 0.500000 -0.010000
v 0.500000 0.500000 -0.020000
v 0.491445 0.369474 -0.020000
v 0.465926 0.241181 -0.020000
v 0.423880 0.117317 -0.020000
v 0.366025 -0.000000 -0.020000
v 0.293353 -0.108761 -0.020000
v 0.207107 -0.207107 -0.020000
v 0.108761 -0.293353 -0.020000
v 0.000000 -0.366025 -0.020000
v -0.117317 -0.423880 -0.020000
v -0.241181 -0.465926 -0.020000
v -0.369474 -0.491445 -0.020000
v -0.500000 -0.500000 -0.020000
v -0.500000 0.300000 -0.010000
v -0.500000 0.010000 -0.010000
v -0.500000 -0.010000 -0.010000
v -0.500000 -0.300000 -0.010000
v 0.300000 0.500000 -0.010000
v 0.010000 0.500000 -0.010000
v -0.300000 0.500000 -0.010000
v -0.010000 0.500000 -0.010000
v -0.010000 0.500000 -0.010000
v -0.014192 0.436042 -0.010000
v -0.026696 0.373179 -0.010000
v -0.047299 0.312485 -0.010000
v -0.075648 0.255000 -0.010000
v -0.111257 0.201707 -0.010000
v -0.153518 0.153518 -0.010000
v -0.201707 0.111257 -0.010000
v -0.255000 0.075648 -0.010000
v -0.312485 0.047299 -0.010000
v -0.301711 0.473895 -0.010000
v -0.306815 0.448236 -0.010000
v -0.315224 0.423463 -0.010000
v -0.373179 0.026696 -0.010000
v -0.326795 0.400000 -0.010000
v -0.341329 0.378248 -0.010000
v -0.358579 0.358579 -0.010000
v -0.378248 0.341329 -0.010000
v -0.436042 0.014192 -0.010000
v -0.400000 0.326795 -0.010000
v -0.423463 0.315224 -0.010000
v -0.448236 0.306815 -0.010000
v -0.500000 0.010000 -0.010000
v -0.473895 0.301711 -0.010000
v 0.010000 0.500000 -0.010000
v 0.293156 0.395579 -0.010000
v 0.272741 0.292945 -0.010000
v 0.239104 0.193853 -0.010000
v 0.192820 0.100000 -0.010000
v 0.134683 0.012991 -0.010000
v 0.065685 -0.065685 -0.010000
v -0.012991 -0.134683 -0.010000
v 0.005637 0.433432 -0.010000
v -0.007378 0.368002 -0.010000
v -0.028821 0.304831 -0.010000
v -0.100000 -0.192820 -0.010000
v -0.058327 0.245000 -0.010000
v -0.095390 0.189532 -0.010000
v -0.139375 0.139375 -0.010000
v -0.193853 -0.239104 -0.010000
v -0.189532 0.095390 -0.010000
v -0.245000 0.058327 -0.010000
v -0.292945 -0.272741 -0.010000
v -0.304831 0.028821 -0.010000
v -0.395579 -0.293156 -0.010000
v -0.368002 0.007378 -0.010000
v -0.433432 -0.005637 -0.010000
v -0.500000 -0.010000 -0.010000
v 0.010000 0.500000 -0.010000
v -0.010000 0.500000 -0.010000
v 0.005637 0.433432 -0.010000
v -0.007378 0.368002 -0.010000
v -0.014192 0.436042 -0.010000
v -0.028821 0.304831 -0.010000
v -0.026696 0.373179 -0.010000
v -0.047299 0.312485 -0.010000
v -0.058327 0.245000 -0.010000
v -0.075648 0.255000 -0.010000
v -0.095390 0.189532 -0.010000
v -0.111257 0.201707 -0.010000
v -0.153518 0.153518 -0.010000
v -0.189532 0.095390 -0.010000
v -0.201707 0.111257 -0.010000
v -0.245000 0.058327 -0.010000
v -0.255000 0.075648 -0.010000
v -0.304831 0.028821 -0.010000
v -0.312485 0.047299 -0.010000
v -0.368002 0.007378 -0.010000
v -0.373179 0.026696 -0.010000
v -0.433432 -0.005637 -0.010000
v -0.436042 0.014192 -0.010000
v -0.500000 -0.010000 -0.010000
v -0.500000 0.010000 -0.010000
v 0.400000 0.500000 -0.010000
v 0.300000 0.500000 -0.010000
v 0.369333 0.267063 -0.010000
v 0.331492 0.155585 -0.010000
v 0.293156 0.395579 -0.010000
v 0.214018 -0.047885 -0.010000
v 0.239104 0.193853 -0.010000
v 0.192820 0.100000 -0.010000
v 0.134683 0.012991 -0.010000
v 0.047885 -0.214018 -0.010000
v 0.065685 -0.065685 -0.010000
v -0.012991 -0.134683 -0.010000
v -0.100000 -0.192820 -0.010000
v -0.155585 -0.331492 -0.010000
v -0.193853 -0.239104 -0.010000
v -0.267063 -0.369333 -0.010000
v -0.395579 -0.293156 -0.010000
v -0.500000 -0.400000 -0.010000
v -0.500000 -0.300000 -0.010000
v -0.301711 0.473895 -0.010000
v -0.306815 0.448236 -0.010000
v -0.315224 0.423463 -0.010000
v -0.341329 0.378248 -0.010000
v -0.358579 0.358579 -0.010000
v -0.378248 0.341329 -0.010000
v -0.400856 0.486947 -0.010000
v -0.423463 0.315224 -0.010000
v -0.407612 0.461732 -0.010000
v -0.413397 0.450000 -0.010000
v -0.429289 0.429289 -0.010000
v -0.448236 0.306815 -0.010000
v -0.450000 0.413397 -0.010000
v -0.473895 0.301711 -0.010000
v -0.461732 0.407612 -0.010000
v -0.486947 0.400856 -0.010000
vn 0.7873 -0.6129 0.0669
vn 0.6538 -0.3775 -0.6558
vn 0.8606 -0.5049 0.0669
vn 0.5568 -0.4834 -0.6755
vn 0.7055 -0.7055 0.0673
vn 0.5378 -0.4794 -0.6934
vn 0.4771 -0.5399 -0.6935
vn 0.3228 -0.6629 -0.6755
vn 0.5049 -0.8606 0.0669
vn 0.3882 -0.9191 0.0669
vn 0.3775 -0.6538 -0.6558
vn 0.2335 -0.6994 -0.6755
vn 0.2649 -0.9619 0.0669
vn -0.5597 -0.5977 -0.5740
vn 0.1371 -0.9883 0.0669
vn -0.8974 -0.3052 -0.3185
vn 0.0985 -0.7485 -0.6558
vn -0.2879 0.9561 0.0554
vn -0.0939 0.7134 -0.6944
vn -0.0675 0.9977 -0.0012
vn -0.2173 0.6593 -0.7198
vn -0.3234 0.9463 -0.0012
vn 0.6129 -0.7873 0.0669
vn -0.5774 0.5774 0.5773
vn 0.7190 -0.0460 0.6935
vn 0.5977 0.5598 0.5740
vn 0.6346 -0.2629 0.7267
vn 0.6467 -0.3176 0.6935
vn 0.5997 -0.3993 0.6935
vn 0.5425 -0.4742 0.6935
vn 0.4759 -0.5409 0.6935
vn 0.4012 -0.5984 0.6935
vn 0.3197 -0.6457 0.6935
vn 0.1778 -0.6635 0.7267
vn 0.1460 -0.7056 0.6935
vn -0.5598 -0.5977 0.5740
vn -0.6609 0.7505 -0.0012
vn -0.4375 0.5713 -0.6944
vn -0.5573 0.8303 -0.0012
vn -0.5178 0.4624 -0.7198
vn -0.9812 0.1931 -0.0012
vn -0.6978 0.1880 -0.6912
vn -0.9719 0.2287 0.0554
vn -0.6830 0.1261 -0.7195
vn -0.3095 0.9509 -0.0000
vn -0.5565 0.5941 -0.5808
vn -0.5774 0.5774 -0.5773
vn 0.7061 -0.1433 -0.6935
vn 0.6624 -0.1775 -0.7278
vn 0.6450 -0.3212 -0.6935
vn 0.9619 -0.2649 0.0669
vn -0.5256 0.8490 0.0554
vn -0.2754 0.6648 -0.6944
vn 0.5977 0.5598 -0.5740
vn 0.9883 -0.1371 0.0669
vn 0.3219 0.9468 -0.0000
vn -0.8104 0.5832 0.0554
vn -0.5773 0.3865 -0.7192
vn 0.7022 -0.0526 -0.7100
vn 0.5976 0.5598 -0.5740
vn 0.6959 -0.1420 -0.7040
vn 0.6719 -0.2388 -0.7011
vn 0.6277 -0.3296 -0.7053
vn -0.6251 0.2992 -0.7209
vn 0.4926 -0.4926 -0.7174
vn 0.4215 -0.5493 -0.7215
vn 0.2377 -0.6802 -0.6935
vn 0.2158 -0.6726 -0.7079
vn 0.1204 -0.6987 -0.7052
vn -0.5598 -0.5976 -0.5740
vn 0.3260 -0.6460 -0.6902
vn 0.5494 -0.4709 -0.6903
vn 0.6819 -0.2327 0.6935
vn -0.9018 -0.0000 -0.4321
vn -1.0000 -0.0001 -0.0001
vn -1.0000 -0.0001 -0.0000
vn -0.0000 1.0000 -0.0000
vn -0.0000 -0.0000 -1.0000
vn -0.8978 0.4404 -0.0012
vn -0.6220 0.3591 -0.6959
vn -0.8326 0.5539 -0.0012
vn -0.3592 0.6235 -0.6944
vn -0.5941 0.5565 -0.5809
vn -0.9509 0.3095 -0.0000
vn 0.9191 -0.3882 0.0669
vn -1.0000 -0.0000 0.0001
vt 0.968750 0.125000
vt 0.968750 0.225000
vt 0.968750 0.025000
vt 0.218750 0.125000
vt 0.218750 0.025000
vt 0.218750 0.225000
vt 0.156250 0.125000
vt 0.281250 0.125000
vt 0.031250 0.125000
s 1
usemtl colormap.017
f 2/1/1 3/2/2 4/1/3
f 1/2/4 6/1/5 5/2/6
f 6/1/5 1/2/4 2/1/1
f 6/1/5 8/2/7 5/2/6
f 11/2/8 10/1/9 9/1/10
f 10/1/9 11/2/8 12/2/11
f 14/2/12 9/1/10 13/1/13
f 17/2/14 16/1/15 15/1/16
f 16/1/15 17/2/14 18/2/17
f 21/1/18 20/2/19 19/1/20
f 20/2/19 21/1/18 22/2/21
f 23/1/22 22/2/21 21/1/18
f 12/2/11 7/1/23 10/1/9
f 7/1/23 12/2/11 8/2/7
f 18/2/17 13/1/13 16/1/15
f 13/1/13 18/2/17 14/2/12
f 31/3/24 30/3/25 29/3/26
f 33/3/27 31/3/24 34/3/28
f 34/3/28 31/3/24 35/3/29
f 35/3/29 31/3/24 36/3/30
f 36/3/30 31/3/24 37/3/31
f 37/3/31 31/3/24 38/3/32
f 38/3/32 31/3/24 39/3/33
f 40/3/34 31/3/24 41/3/35
f 41/3/35 31/3/24 42/3/36
f 49/1/37 46/2/38 45/1/39
f 46/2/38 49/1/37 50/2/40
f 55/1/41 54/2/42 53/1/43
f 56/2/44 57/1/45 58/2/46
f 60/2/47 61/2/48 62/2/49
f 60/2/47 63/2/50 3/2/2
f 60/2/47 14/2/12 18/2/17
f 60/2/47 18/2/17 17/2/14
f 61/2/48 64/1/51 62/2/49
f 43/1/52 24/2/53 23/1/22
f 59/2/54 65/1/55 61/2/48
f 65/1/55 59/2/54 67/1/56
f 51/1/57 50/2/40 49/1/37
f 50/2/40 51/1/57 52/2/58
f 69/2/59 58/2/46 68/2/60
f 58/2/46 69/2/59 70/2/61
f 58/2/46 70/2/61 71/2/62
f 58/2/46 71/2/62 56/2/44
f 54/2/42 72/2/63 28/2/64
f 52/2/58 74/2/65 50/2/40
f 50/2/40 75/2/66 46/2/38
f 24/2/53 77/2/67 78/2/68
f 24/2/53 78/2/68 22/2/21
f 22/2/21 78/2/68 79/2/69
f 41/3/35 80/2/70 79/2/69
f 78/2/68 41/3/35 79/2/69
f 76/2/71 39/3/33 77/2/67
f 38/3/32 75/2/66 37/3/31
f 75/2/66 38/3/32 76/2/71
f 37/3/31 74/2/65 36/3/30
f 74/2/65 37/3/31 75/2/66
f 73/2/72 36/3/30 74/2/65
f 36/3/30 73/2/72 35/3/29
f 72/2/63 35/3/29 73/2/72
f 35/3/29 72/2/63 34/3/28
f 71/2/62 34/3/28 72/2/63
f 33/3/27 70/2/61 32/3/73
f 69/2/59 32/3/73 70/2/61
f 32/3/73 69/2/59 30/3/25
f 30/3/25 68/2/60 29/3/26
f 15/4/16 31/5/24 17/6/14
f 81/4/74 31/5/24 15/4/16
f 83/4/75 31/5/24 82/4/76
f 57/4/45 68/6/60 58/6/46
f 57/4/45 29/5/26 68/6/60
f 31/5/24 67/4/56 60/6/47
s 0
f 87/4/77 86/4/77 88/4/77
s 1
f 90/7/78 87/7/78 89/7/78
f 87/7/78 94/7/78 95/7/78
f 87/7/78 95/7/78 96/7/78
f 87/7/78 96/7/78 97/7/78
f 87/7/78 97/7/78 98/7/78
f 87/7/78 98/7/78 99/7/78
f 99/7/78 98/7/78 100/7/78
f 103/7/78 102/7/78 104/7/78
f 104/7/78 102/7/78 105/7/78
f 105/7/78 102/7/78 106/7/78
f 106/7/78 102/7/78 107/7/78
f 106/7/78 107/7/78 108/7/78
f 108/7/78 107/7/78 109/7/78
f 110/7/78 107/7/78 111/7/78
f 113/7/78 114/7/78 115/7/78
f 113/7/78 115/7/78 116/7/78
f 113/7/78 116/7/78 117/7/78
f 113/7/78 117/7/78 118/7/78
f 113/7/78 118/7/78 119/7/78
f 113/7/78 120/7/78 121/7/78
f 121/7/78 120/7/78 122/7/78
f 122/7/78 120/7/78 123/7/78
f 123/7/78 120/7/78 124/7/78
f 123/7/78 124/7/78 125/7/78
f 125/7/78 124/7/78 126/7/78
f 126/7/78 124/7/78 127/7/78
f 127/7/78 124/7/78 128/7/78
f 127/7/78 128/7/78 129/7/78
f 129/7/78 128/7/78 130/7/78
f 130/7/78 128/7/78 131/7/78
f 130/7/78 131/7/78 132/7/78
f 132/7/78 131/7/78 133/7/78
f 135/7/78 133/7/78 84/7/78
f 135/7/78 84/7/78 136/7/78
f 141/8/78 140/8/78 142/8/78
f 144/8/78 145/8/78 146/8/78
f 146/8/78 145/8/78 147/8/78
f 146/8/78 147/8/78 148/8/78
f 159/8/78 158/8/78 160/8/78
f 55/9/78 163/9/78 162/9/78
f 163/9/78 55/9/78 164/9/78
f 163/9/78 164/9/78 165/9/78
f 163/9/78 165/9/78 25/9/78
f 163/9/78 25/9/78 166/9/78
f 166/9/78 25/9/78 115/9/78
f 115/9/78 25/9/78 167/9/78
f 115/9/78 167/9/78 168/9/78
f 168/9/78 167/9/78 169/9/78
f 169/9/78 167/9/78 49/9/78
f 170/9/78 49/9/78 171/9/78
f 170/9/78 171/9/78 172/9/78
f 172/9/78 171/9/78 173/9/78
f 173/9/78 171/9/78 43/9/78
f 174/9/78 175/9/78 176/9/78
f 178/9/78 179/9/78 180/9/78
f 67/9/78 181/9/78 182/9/78
f 67/9/78 182/9/78 183/9/78
f 191/9/78 192/9/78 7/9/78
f 7/9/78 192/9/78 193/9/78
f 193/9/78 192/9/78 194/9/78
f 13/9/78 81/9/74 196/9/78
f 196/9/78 81/9/74 15/9/16
f 3/2/2 2/1/1 1/2/4
f 8/2/7 6/1/5 7/1/23
f 9/1/10 14/2/12 11/2/8
f 22/2/21 23/1/22 24/2/53
f 27/1/79 26/2/80 25/1/81
f 26/2/80 27/1/79 28/2/64
f 30/3/25 31/3/24 32/3/73
f 32/3/73 31/3/24 33/3/27
f 39/3/33 31/3/24 40/3/34
f 45/1/39 44/2/82 43/1/52
f 44/2/82 45/1/39 46/2/38
f 19/1/20 48/2/83 47/1/84
f 48/2/83 19/1/20 20/2/19
f 25/1/81 52/2/58 51/1/57
f 52/2/58 25/1/81 26/2/80
f 54/2/42 55/1/41 56/2/44
f 57/1/45 56/2/44 55/1/41
f 61/2/48 60/2/47 59/2/54
f 60/2/47 62/2/49 63/2/50
f 60/2/47 3/2/2 1/2/4
f 60/2/47 1/2/4 5/2/6
f 60/2/47 5/2/6 8/2/7
f 60/2/47 8/2/7 12/2/11
f 60/2/47 12/2/11 11/2/8
f 60/2/47 11/2/8 14/2/12
f 64/1/51 61/2/48 65/1/55
f 62/2/49 66/1/85 63/2/50
f 66/1/85 62/2/49 64/1/51
f 24/2/53 43/1/52 44/2/82
f 63/2/50 4/1/3 3/2/2
f 4/1/3 63/2/50 66/1/85
f 53/1/43 28/2/64 27/1/79
f 28/2/64 53/1/43 54/2/42
f 56/2/44 71/2/62 72/2/63
f 56/2/44 72/2/63 54/2/42
f 28/2/64 72/2/63 73/2/72
f 28/2/64 73/2/72 26/2/80
f 26/2/80 73/2/72 74/2/65
f 26/2/80 74/2/65 52/2/58
f 50/2/40 74/2/65 75/2/66
f 46/2/38 75/2/66 76/2/71
f 46/2/38 76/2/71 44/2/82
f 44/2/82 76/2/71 77/2/67
f 44/2/82 77/2/67 24/2/53
f 22/2/21 79/2/69 20/2/19
f 20/2/19 79/2/69 80/2/70
f 20/2/19 80/2/70 48/2/83
f 80/2/70 41/3/35 42/3/36
f 41/3/35 78/2/68 40/3/34
f 40/3/34 77/2/67 39/3/33
f 77/2/67 40/3/34 78/2/68
f 39/3/33 76/2/71 38/3/32
f 34/3/28 71/2/62 33/3/27
f 70/2/61 33/3/27 71/2/62
f 68/2/60 30/3/25 69/2/59
f 17/6/14 31/5/24 60/6/47
f 82/4/76 31/5/24 81/4/74
f 84/4/86 31/5/24 83/4/75
f 47/4/84 31/5/24 84/4/86
f 47/4/84 42/5/36 31/5/24
f 42/5/36 47/4/84 80/6/70
f 48/6/83 80/6/70 47/4/84
f 29/5/26 57/4/45 31/5/24
f 31/5/24 57/4/45 85/4/77
f 67/4/56 31/5/24 85/4/77
f 60/6/47 67/4/56 59/6/54
s 0
f 86/4/77 67/4/77 85/4/77
f 67/4/77 86/4/77 87/4/77
s 1
f 87/7/78 90/7/78 91/7/78
f 87/7/78 91/7/78 92/7/78
f 87/7/78 92/7/78 93/7/78
f 87/7/78 93/7/78 94/7/78
f 100/7/78 98/7/78 101/7/78
f 101/7/78 98/7/78 102/7/78
f 101/7/78 102/7/78 103/7/78
f 109/7/78 107/7/78 110/7/78
f 110/7/78 111/7/78 112/7/78
f 112/7/78 111/7/78 81/7/78
f 114/7/78 113/7/78 85/7/78
f 113/7/78 119/7/78 120/7/78
f 132/7/78 133/7/78 134/7/78
f 134/7/78 133/7/78 135/7/78
f 139/8/78 138/8/78 137/8/78
f 138/8/78 139/8/78 140/8/78
f 138/8/78 140/8/78 141/8/78
f 141/8/78 142/8/78 143/8/78
f 143/8/78 142/8/78 144/8/78
f 144/8/78 142/8/78 145/8/78
f 148/8/78 147/8/78 127/8/78
f 148/8/78 127/8/78 149/8/78
f 149/8/78 127/8/78 150/8/78
f 149/8/78 150/8/78 151/8/78
f 151/8/78 150/8/78 152/8/78
f 151/8/78 152/8/78 153/8/78
f 153/8/78 152/8/78 154/8/78
f 153/8/78 154/8/78 155/8/78
f 155/8/78 154/8/78 156/8/78
f 155/8/78 156/8/78 157/8/78
f 157/8/78 156/8/78 158/8/78
f 157/8/78 158/8/78 159/8/78
f 159/8/78 160/8/78 161/8/78
f 169/9/78 49/9/78 170/9/78
f 173/9/78 43/9/78 174/9/78
f 174/9/78 43/9/78 175/9/78
f 176/9/78 175/9/78 177/9/78
f 176/9/78 177/9/78 131/9/78
f 131/9/78 177/9/78 19/9/78
f 131/9/78 19/9/78 178/9/78
f 178/9/78 19/9/78 179/9/78
f 181/9/78 67/9/78 87/9/78
f 67/9/78 183/9/78 103/9/78
f 67/9/78 103/9/78 184/9/78
f 67/9/78 184/9/78 185/9/78
f 67/9/78 185/9/78 186/9/78
f 67/9/78 186/9/78 108/9/78
f 67/9/78 108/9/78 187/9/78
f 187/9/78 108/9/78 188/9/78
f 187/9/78 188/9/78 64/9/78
f 64/9/78 188/9/78 189/9/78
f 189/9/78 188/9/78 190/9/78
f 190/9/78 188/9/78 2/9/78
f 2/9/78 188/9/78 191/9/78
f 191/9/78 188/9/78 192/9/78
f 193/9/78 194/9/78 195/9/78
f 195/9/78 194/9/78 13/9/78
f 13/9/78 194/9/78 81/9/74
