# Blender 5.0.0
# www.blender.org
mtllib door.mtl
o wall-door-rotate
v 0.400000 0.150000 -0.300000
v 0.500000 0.150000 -0.300000
v 0.400000 0.200000 -0.250000
v 0.500000 0.200000 -0.250000
v -0.400000 0.150000 -0.300000
v -0.400000 0.200000 -0.250000
v -0.500000 0.150000 -0.300000
v -0.500000 0.200000 -0.250000
v -0.500000 -0.000000 -0.300000
v -0.400000 -0.000000 -0.300000
v 0.500000 -0.000000 -0.300000
v 0.400000 -0.000000 -0.300000
v 0.400000 0.000000 0.300000
v 0.400000 0.200000 0.250000
v 0.400000 0.150000 0.300000
v -0.400000 0.000000 0.300000
v -0.500000 0.000000 0.300000
v -0.400000 0.150000 0.300000
v -0.500000 0.150000 0.300000
v -0.400000 0.200000 0.250000
v 0.500000 0.000000 0.300000
v 0.500000 0.150000 0.300000
v -0.500000 0.200000 0.250000
v 0.500000 0.200000 0.250000
v -0.500000 1.000000 0.250000
v -0.500000 0.600000 0.250000
v -0.500000 1.000000 -0.250000
v 0.500000 1.000000 -0.250000
v 0.500000 1.000000 0.250000
v 0.500000 0.600000 0.250000
v 0.400000 0.900000 -0.250000
v 0.400000 0.900000 0.250000
v 0.400000 0.600000 0.250000
v -0.400000 0.900000 -0.250000
v -0.400000 0.200000 -0.250000
v -0.400000 0.900000 0.250000
v -0.400000 0.200000 0.250000
v -0.400000 0.600000 0.250000
v -0.400000 -0.000000 -0.300000
v -0.400000 0.000000 0.300000
v -0.400000 0.000000 0.150000
v -0.400000 0.000000 0.050000
v 0.000000 0.900000 0.050000
v 0.000000 0.900000 0.150000
v -0.400000 0.900000 0.050000
v -0.400000 0.900000 0.150000
v -0.425000 0.700000 0.025000
v -0.425000 0.800000 0.025000
v -0.425000 0.700000 0.175000
v -0.425000 0.800000 0.175000
v -0.425000 0.100000 0.025000
v -0.425000 0.200000 0.025000
v -0.425000 0.100000 0.175000
v -0.425000 0.200000 0.175000
v 0.400000 0.900000 0.050000
v 0.400000 0.900000 0.150000
v 0.400000 0.000000 0.150000
v 0.400000 0.000000 0.050000
v 0.425000 0.100000 0.025000
v 0.425000 0.200000 0.025000
v 0.425000 0.100000 0.175000
v 0.425000 0.200000 0.175000
v 0.425000 0.700000 0.025000
v 0.425000 0.800000 0.025000
v 0.425000 0.700000 0.175000
v 0.425000 0.800000 0.175000
vn -0.7516 0.2524 -0.6095
vn 0.2576 0.3698 -0.8927
vn -0.6596 0.5029 -0.5586
vn 0.1831 0.3762 -0.9083
vn -0.5773 -0.5773 -0.5774
vn 0.1096 -0.7028 -0.7028
vn -0.5773 -0.5774 0.5774
vn -0.8042 0.2275 0.5491
vn -0.6579 0.5870 0.4718
vn -0.7071 -0.0000 0.7071
vn 0.2576 0.3698 0.8927
vn -0.6598 -0.0300 0.7509
vn 0.8046 0.2811 -0.5230
vn 0.7071 -0.0000 0.7071
vn 0.7071 -0.0000 -0.7071
vn 0.8320 0.3922 -0.3922
vn 0.8321 0.3922 0.3922
vn 0.1096 -0.7028 0.7029
vn 0.2891 0.3664 0.8844
vn -0.9285 0.2626 0.2626
vn -0.4046 0.5737 -0.7121
vn -0.9063 0.2989 -0.2989
vn -0.7071 -0.0000 -0.7071
vn 0.1830 0.3762 0.9083
vn -1.0000 -0.0000 -0.0000
vn -0.0001 1.0000 -0.0000
vn 0.0001 -1.0000 -0.0000
vn -0.0000 -1.0000 -0.0000
vn 1.0000 -0.0000 -0.0000
vn -0.0000 1.0000 -0.0000
vn -0.0000 -0.0000 -1.0000
vn -0.0000 -0.0000 1.0000
vt 0.468750 0.225000
vt 0.468750 0.175000
vt 0.468750 0.025000
vt 0.218750 0.025000
vt 0.218750 0.175000
vt 0.218750 0.225000
vt 0.093750 0.025000
vt 0.093750 0.055000
vt 0.093750 0.065000
vt 0.093750 0.225000
vt 0.093750 0.145000
vt 0.093750 0.205000
vt 0.218750 0.065000
vt 0.218750 0.205000
vt 0.218750 0.145000
vt 0.218750 0.475000
vt 0.218750 0.275000
s 1
usemtl colormap
f 3/1/1 2/2/2 1/2/3
f 2/2/2 3/1/1 4/1/4
f 12/3/5 2/2/2 11/3/6
f 2/2/2 12/3/5 1/2/3
f 13/4/7 1/5/3 12/4/5
f 14/6/8 13/4/7 15/5/9
f 17/4/10 18/5/11 19/5/12
f 5/5/13 16/4/14 10/4/15
f 16/4/14 5/5/13 6/6/16
f 16/4/14 6/6/16 20/6/17
f 16/4/14 20/6/17 18/5/11
f 21/4/18 15/5/9 13/4/7
f 15/5/9 21/4/18 22/5/19
f 23/6/20 18/5/11 20/6/17
f 18/5/11 23/6/20 19/5/12
f 22/5/19 14/6/8 15/5/9
f 7/2/21 6/1/16 5/2/13
f 6/1/16 7/2/21 8/1/22
f 7/2/21 10/3/15 9/3/23
f 10/3/15 7/2/21 5/2/13
f 1/5/3 13/4/7 3/6/1
f 3/6/1 13/4/7 14/6/8
f 18/5/11 17/4/10 16/4/14
f 14/6/8 22/5/19 24/6/24
f 17/7/10 7/8/21 9/7/23
f 7/8/21 17/7/10 8/9/22
f 8/9/22 17/7/10 23/9/20
f 23/9/20 17/7/10 19/8/12
f 8/9/22 23/9/20 25/10/25
s 0
f 25/10/26 23/9/27 26/11/28
s 1
f 25/10/25 27/10/25 8/9/25
f 29/10/29 4/9/29 28/10/29
f 30/11/29 4/9/29 29/10/29
f 24/9/29 4/9/29 30/11/29
f 21/7/29 4/9/29 24/9/29
f 21/7/18 24/9/24 22/8/19
f 11/7/29 4/9/29 21/7/29
f 4/9/4 11/7/6 2/8/2
f 28/10/30 25/10/30 29/10/30
f 25/10/30 28/10/30 27/10/30
f 3/9/25 32/12/25 31/12/25
f 32/12/25 3/9/1 14/9/8
s 0
f 32/12/26 14/9/27 33/11/28
s 1
f 36/12/29 35/9/29 34/12/29
f 35/9/29 36/12/29 37/9/29
s 0
f 37/9/27 36/12/26 38/11/30
s 1
f 32/12/28 34/12/28 31/12/28
f 34/12/28 32/12/28 36/12/28
f 21/4/18 12/4/5 11/4/6
f 12/4/5 21/4/18 13/4/7
f 40/4/28 9/4/28 39/4/28
f 9/4/28 40/4/28 17/4/28
f 27/6/31 35/13/31 8/13/31
f 35/13/31 27/6/31 34/14/31
f 34/14/31 27/6/31 31/14/31
f 28/6/31 31/14/31 27/6/31
f 4/13/4 31/14/31 28/6/31
f 31/14/31 4/13/4 3/13/1
f 29/6/32 33/15/32 30/15/32
f 33/15/32 29/6/32 32/14/32
f 32/14/32 29/6/32 36/14/32
f 25/6/32 36/14/32 29/6/32
f 26/15/32 36/14/32 25/6/32
f 36/14/32 26/15/32 38/15/32
f 38/16/32 23/17/32 37/17/32
f 23/17/32 38/16/32 26/16/32
f 30/16/32 14/17/8 24/17/24
f 14/17/8 30/16/32 33/16/32
f 45/6/30 44/6/30 43/6/30
f 44/6/30 45/6/30 46/6/30
f 42/4/25 46/6/25 45/6/25
f 46/6/25 42/4/25 41/4/25
f 49/3/25 48/1/25 47/3/25
f 48/1/25 49/3/25 50/1/25
f 53/3/25 52/1/25 51/3/25
f 52/1/25 53/3/25 54/1/25
f 57/4/29 58/4/29 56/6/29
f 55/6/29 56/6/29 58/4/29
f 56/6/30 55/6/30 44/6/30
f 43/6/30 44/6/30 55/6/30
f 62/1/29 61/3/29 60/1/29
f 59/3/29 60/1/29 61/3/29
f 66/1/29 65/3/29 64/1/29
f 63/3/29 64/1/29 65/3/29
