# Blender 4.5.3 LTS
# www.blender.org
mtllib road-straight.mtl
o road-straight.007
v 0.500000 -0.400000 -0.010000
v -0.500000 -0.400000 -0.010000
v 0.500000 -0.400000 -0.020000
v -0.500000 -0.400000 -0.020000
v -0.500000 -0.500000 0.000000
v 0.500000 -0.500000 0.000000
v -0.500000 -0.500000 -0.020000
v 0.500000 -0.500000 -0.020000
v -0.500000 0.400000 -0.010000
v 0.500000 0.400000 -0.010000
v -0.500000 0.400000 -0.020000
v 0.500000 0.400000 -0.020000
v 0.500000 0.500000 0.000000
v -0.500000 0.500000 0.000000
v 0.500000 0.500000 -0.020000
v -0.500000 0.500000 -0.020000
v 0.500000 0.300000 -0.010000
v 0.500000 0.010000 -0.010000
v 0.500000 -0.010000 -0.010000
v 0.500000 -0.300000 -0.010000
v -0.500000 0.300000 -0.010000
v -0.500000 0.010000 -0.010000
v -0.500000 -0.010000 -0.010000
v -0.500000 -0.300000 -0.010000
vn 0.5773 0.5774 -0.5774
vn -0.9045 0.3015 -0.3015
vn 0.9045 0.3015 -0.3015
vn -0.5774 0.5774 -0.5774
vn -0.5774 -0.5773 -0.5774
vn 0.5773 -0.5773 0.5774
vn -0.5774 -0.5773 0.5773
vn 0.5774 -0.5774 -0.5774
vn -0.5773 -0.5774 -0.5774
vn 0.9045 -0.3015 -0.3015
vn -0.9045 -0.3015 -0.3015
vn -0.5773 0.5774 0.5774
vn 0.5773 0.5774 0.5774
vn 0.5774 0.5773 -0.5774
vn 0.7071 -0.0000 -0.7071
vn -0.7071 0.0001 -0.7071
vn -0.7072 -0.0001 -0.7071
vn -0.7071 -0.0000 -0.7071
vt 0.968750 0.225000
vt 0.968750 0.125000
vt 0.968750 0.025000
vt 0.218750 0.225000
vt 0.218750 0.125000
vt 0.218750 0.025000
vt 0.156250 0.125000
vt 0.031250 0.125000
vt 0.281250 0.125000
s 1
usemtl colormap.005
f 3/1/1 2/2/2 1/2/3
f 2/2/2 3/1/1 4/1/4
f 7/1/5 6/3/6 5/3/7
f 6/3/6 7/1/5 8/1/8
f 11/1/9 10/2/10 9/2/11
f 10/2/10 11/1/9 12/1/8
f 14/3/12 6/3/6 13/3/13
f 6/3/6 14/3/12 5/3/7
f 7/1/5 3/1/1 8/1/8
f 3/1/1 7/1/5 4/1/4
f 11/1/9 15/1/14 12/1/8
f 15/4/14 10/5/10 12/4/8
f 13/6/13 10/5/10 15/4/14
f 13/6/13 17/5/15 10/5/10
f 6/6/6 1/5/3 13/6/13
f 3/4/1 6/6/6 8/4/8
f 9/5/11 14/6/12 11/4/9
f 23/5/16 14/6/12 22/5/17
f 24/5/18 14/6/12 23/5/16
f 4/4/4 7/4/5 2/5/2
f 18/7/15 21/7/18 17/7/15
f 21/7/18 18/7/15 22/7/17
f 24/7/18 19/7/15 20/7/15
f 2/8/2 20/8/15 1/8/3
f 21/8/18 10/8/10 17/8/15
f 23/9/16 18/9/15 19/9/15
f 18/9/15 23/9/16 22/9/17
f 15/1/14 14/3/12 13/3/13
f 14/3/12 15/1/14 16/1/4
f 15/1/14 11/1/9 16/1/4
f 13/6/13 18/5/15 17/5/15
f 13/6/13 19/5/15 18/5/15
f 13/6/13 20/5/15 19/5/15
f 13/6/13 1/5/3 20/5/15
f 6/6/6 3/4/1 1/5/3
f 11/4/9 14/6/12 16/4/4
f 21/5/18 14/6/12 9/5/11
f 22/5/17 14/6/12 21/5/18
f 2/5/2 14/6/12 24/5/18
f 2/5/2 5/6/7 14/6/12
f 5/6/7 2/5/2 7/4/5
f 19/7/15 24/7/18 23/7/16
f 20/8/15 2/8/2 24/8/18
f 10/8/10 21/8/18 9/8/11
