# Blender 4.5.3 LTS
# www.blender.org
mtllib wall-door-rotate.002.mtl
o wall-door-rotate.003
v -0.500000 0.250000 -1.000000
v -0.500000 -0.250000 -1.000000
v 0.500000 -0.250000 -1.000000
v 0.500000 0.250000 -1.000000
v 0.400000 -0.250000 -0.900000
v 0.400000 0.250000 -0.900000
v -0.400000 -0.250000 -0.900000
v -0.400000 0.250000 -0.900000
v 0.000000 0.050000 -0.900000
v 0.000000 0.150000 -0.900000
v -0.400000 0.050000 -0.900000
v -0.400000 0.150000 -0.900000
v 0.400000 0.050000 -0.900000
v 0.400000 0.150000 -0.900000
vn -0.0000 -0.0000 -1.0000
vn -0.0000 -0.0000 1.0000
vn -0.0000 -1.0000 -0.0000
vn -0.0000 1.0000 -0.0000
vt 0.093750 0.225000
vt 0.093750 0.205000
vt 0.218750 0.205000
vt 0.218750 0.225000
s 1
usemtl colormap.002
f 3/1/1 1/1/1 4/1/1
f 1/1/1 3/1/1 2/1/1
f 6/2/2 7/2/2 5/2/2
f 7/2/2 6/2/2 8/2/2
f 7/3/3 2/4/3 5/3/3
f 3/4/3 5/3/3 2/4/3
f 6/3/4 4/4/4 8/3/4
f 1/4/4 8/3/4 4/4/4
f 11/4/1 10/4/1 9/4/1
f 10/4/1 11/4/1 12/4/1
f 14/4/1 13/4/1 10/4/1
f 9/4/1 10/4/1 13/4/1
